<svg
  xmlns="http://www.w3.org/2000/svg"
  version="1.1"
  xmlns:xlink="http://www.w3.org/1999/xlink"
  width="512"
  height="512"
  x="0"
  y="0"
  viewBox="0 0 512 512"
  style="enable-background: new 0 0 512 512"
  xml:space="preserve"
  fill="currentColor"
  class="">
  <g>
    <path
      fill-rule="evenodd"
      d="m313.81 84.909 65.28-72.47h-22.239a6 6 0 1 1 0-12h35.888a6 6 0 0 1 6 6v35.883a6 6 0 0 1-12 0V21.879L319.207 96.85a5.994 5.994 0 0 1-7.845.929l-72.985-50.051-73.569 81.094a6 6 0 0 1-8.888-8.062l77.089-84.968a6 6 0 0 1 7.831-.92zM216.718 95.3a6 6 0 0 0-6 6v153.978a6 6 0 0 0 6 6h41.46a6 6 0 0 0 6-6V101.3a6 6 0 0 0-6-6zm-83.089 78.929v81.047a6 6 0 0 0 6 6H181.1a6 6 0 0 0 6-6v-81.045a6 6 0 0 0-6-6h-41.47a6 6 0 0 0-6 6zm358.91 111.882L332.6 432.091a19.755 19.755 0 0 1-17 5.157l-135.44-20.579a5.9 5.9 0 0 0-3.85.712l-27.91 15.781-53.429-85.481c.127-.071.245-.128.377-.213l89.091-55.288a19.9 19.9 0 0 1 14.941-2.769l141.477 27.811a22.475 22.475 0 1 1-8.666 44.107l-103.334-20.31a6 6 0 1 0-2.307 11.771l103.329 20.32a34.466 34.466 0 0 0 37.992-48.169l96.89-73.05a21.223 21.223 0 0 1 22.876-1.911 22.178 22.178 0 0 1 12.385 20.2c-.123 6.242-2.572 11.451-7.483 15.932zm19.48-15.691a34.133 34.133 0 0 0-18.919-31.131 33.373 33.373 0 0 0-22.239-3.109 84.688 84.688 0 0 0 .759-11.28 83.269 83.269 0 0 0-53.273-77.579V64.84a5.987 5.987 0 0 0-6-6h-41.461a5.987 5.987 0 0 0-6 6v80.329a82.718 82.718 0 0 0-23.622 11.314v-18.711a6 6 0 0 0-6-6H293.8a6 6 0 0 0-6 6v117.506a6.007 6.007 0 0 0 6 6h19.924a83.471 83.471 0 0 0 58.689 45.2l-11.36 8.572a34.284 34.284 0 0 0-17.871-9.61l-141.492-27.8a31.853 31.853 0 0 0-23.579 4.341l-89.091 55.3a4.14 4.14 0 0 0-.387.259l-9.023-14.42a5.984 5.984 0 0 0-8.36-1.84L2.738 365.971a6.009 6.009 0 0 0-1.8 8.21l84.123 134.56a5.961 5.961 0 0 0 3.788 2.68 5.724 5.724 0 0 0 1.293.142 5.986 5.986 0 0 0 3.279-.972l68.51-44.691a6.015 6.015 0 0 0 1.806-8.209l-8.968-14.342 25.641-14.507 133.377 20.272a35.437 35.437 0 0 0 5.274.406 31.511 31.511 0 0 0 21.627-8.558L500.63 294.969c7.369-6.718 11.2-14.979 11.389-24.547zm-129.56-40.09v31.37c-6.8-2.208-11.691-8.058-11.691-14.918a6 6 0 1 0-12 0c0 13.441 10.186 24.688 23.688 27.312v7.968a6 6 0 0 0 12 0v-7.968c13.507-2.624 23.7-13.871 23.7-27.312s-10.19-24.7-23.7-27.311V188.1c6.808 2.208 11.7 8.058 11.7 14.918a6 6 0 1 0 12 0c0-13.436-10.19-24.7-23.7-27.306v-7.974a6 6 0 0 0-12 0v7.974c-13.5 2.608-23.688 13.87-23.688 27.306s10.186 24.693 23.688 27.311zm12 31.369c6.808-2.208 11.7-8.058 11.7-14.918s-4.892-12.71-11.7-14.922V261.7zm-12-43.758c-6.8-2.208-11.691-8.062-11.691-14.922s4.893-12.71 11.691-14.918z"
      opacity="1"></path>
  </g>
</svg>
